<?xml version="1.0" encoding="utf-8"?>
<!-- Generator: Adobe Illustrator 18.0.0, SVG Export Plug-In . SVG Version: 6.00 Build 0)  -->
<!DOCTYPE svg PUBLIC "-//W3C//DTD SVG 1.1//EN" "http://www.w3.org/Graphics/SVG/1.1/DTD/svg11.dtd">
<svg version="1.1" id="Слой_1" xmlns="http://www.w3.org/2000/svg" xmlns:xlink="http://www.w3.org/1999/xlink" x="0px" y="0px"
	 viewBox="0 0 39.1 74.1" enable-background="new 0 0 39.1 74.1" xml:space="preserve">
<path fill-rule="evenodd" clip-rule="evenodd" fill="#0C0E0F" d="M38.5,38.5c-0.1,0.1-0.2,0.1-0.3,0.2L3.4,73.5
	c-0.8,0.8-2,0.8-2.8,0c-0.8-0.8-0.8-2,0-2.8l33.6-33.6L0.6,3.4c-0.8-0.8-0.8-2,0-2.8c0.8-0.8,2-0.8,2.8,0l34.8,34.8
	c0.1,0.1,0.2,0.1,0.3,0.2c0.4,0.4,0.6,0.9,0.6,1.5C39.1,37.6,38.9,38.1,38.5,38.5z"/>
</svg>
