<?xml version="1.0" encoding="utf-8"?>
<!-- Generator: Adobe Illustrator 18.0.0, SVG Export Plug-In . SVG Version: 6.00 Build 0)  -->
<!DOCTYPE svg PUBLIC "-//W3C//DTD SVG 1.1//EN" "http://www.w3.org/Graphics/SVG/1.1/DTD/svg11.dtd">
<svg version="1.1" id="Слой_1" xmlns="http://www.w3.org/2000/svg" xmlns:xlink="http://www.w3.org/1999/xlink" x="0px" y="0px"
	 viewBox="0 0 39 74" enable-background="new 0 0 39 74" xml:space="preserve">
<path fill-rule="evenodd" clip-rule="evenodd" fill="#0C0E0F" d="M38.4,3.4L4.9,37l33.6,33.6c0.8,0.8,0.8,2,0,2.8
	c-0.8,0.8-2,0.8-2.8,0L0.9,38.7c-0.1-0.1-0.2-0.1-0.3-0.2C0.2,38.1,0,37.5,0,37c0-0.5,0.2-1.1,0.6-1.5c0.1-0.1,0.2-0.1,0.3-0.2
	L35.6,0.6c0.8-0.8,2-0.8,2.8,0C39.2,1.4,39.2,2.6,38.4,3.4z"/>
</svg>
