<?xml version="1.0" encoding="utf-8"?>
<!-- Generator: Adobe Illustrator 18.0.0, SVG Export Plug-In . SVG Version: 6.00 Build 0)  -->
<!DOCTYPE svg PUBLIC "-//W3C//DTD SVG 1.1//EN" "http://www.w3.org/Graphics/SVG/1.1/DTD/svg11.dtd">
<svg version="1.1" id="Слой_1" xmlns="http://www.w3.org/2000/svg" xmlns:xlink="http://www.w3.org/1999/xlink" x="0px" y="0px"
	 viewBox="0 0 22 14" enable-background="new 0 0 22 14" xml:space="preserve">
<path fill-rule="evenodd" clip-rule="evenodd" fill="#fff" d="M21,8H1C0.4,8,0,7.6,0,7s0.4-1,1-1h20c0.6,0,1,0.4,1,1S21.6,8,21,8z
	 M21,2H1C0.4,2,0,1.6,0,1s0.4-1,1-1h20c0.6,0,1,0.4,1,1S21.6,2,21,2z M1,12h20c0.6,0,1,0.4,1,1s-0.4,1-1,1H1c-0.6,0-1-0.4-1-1
	S0.4,12,1,12z"/>
</svg>
