<?xml version="1.0" encoding="utf-8"?>
<!-- Generator: Adobe Illustrator 18.0.0, SVG Export Plug-In . SVG Version: 6.00 Build 0)  -->
<!DOCTYPE svg PUBLIC "-//W3C//DTD SVG 1.1//EN" "http://www.w3.org/Graphics/SVG/1.1/DTD/svg11.dtd">
<svg version="1.1" id="Слой_1" xmlns="http://www.w3.org/2000/svg" xmlns:xlink="http://www.w3.org/1999/xlink" x="0px" y="0px"
	 viewBox="0 0 32 32" enable-background="new 0 0 32 32" xml:space="preserve">
<path fill-rule="evenodd" clip-rule="evenodd" fill="#0C0E0F" d="M31.4,28.6l-6.2-6.2c0,0,0,0,0,0c1.8-2.3,2.8-5.2,2.8-8.4
	c0-7.7-6.3-14-14-14C6.3,0,0,6.3,0,14c0,7.7,6.3,14,14,14c3.2,0,6.1-1.1,8.4-2.8c0,0,0,0,0,0l6.2,6.2C29,31.8,29.5,32,30,32
	s1-0.2,1.4-0.6C32.2,30.6,32.2,29.4,31.4,28.6z M14,24C8.5,24,4,19.5,4,14C4,8.5,8.5,4,14,4c5.5,0,10,4.5,10,10
	C24,19.5,19.5,24,14,24z"/>
</svg>
