<?xml version="1.0" encoding="utf-8"?>
<!-- Generator: Adobe Illustrator 18.0.0, SVG Export Plug-In . SVG Version: 6.00 Build 0)  -->
<!DOCTYPE svg PUBLIC "-//W3C//DTD SVG 1.1//EN" "http://www.w3.org/Graphics/SVG/1.1/DTD/svg11.dtd">
<svg version="1.1" id="Слой_1" xmlns="http://www.w3.org/2000/svg" xmlns:xlink="http://www.w3.org/1999/xlink" x="0px" y="0px"
	 viewBox="0 0 10 16" enable-background="new 0 0 10 16" xml:space="preserve">
<path fill-rule="evenodd" clip-rule="evenodd" fill="#000" d="M8.9,6.8L10,8l-7.3,7.4c-0.1,0.1-0.2,0.3-0.4,0.4L2.1,16L2,15.9
	C1.8,16,1.7,16,1.5,16C0.7,16,0,15.3,0,14.5c0-0.2,0-0.3,0.1-0.5L0,13.9l0.3-0.3c0.1-0.1,0.2-0.2,0.3-0.3L5.9,8L0.8,2.8
	C0.5,2.7,0.3,2.4,0.2,2.2L0,2l0,0C0,1.8,0,1.7,0,1.5C0,0.7,0.7,0,1.5,0C1.7,0,1.8,0,2,0.1L2.1,0l0.3,0.3c0.1,0.1,0.2,0.2,0.2,0.2
	L8.9,6.8z"/>
</svg>
