<?xml version="1.0" encoding="utf-8"?>
<!-- Generator: Adobe Illustrator 18.0.0, SVG Export Plug-In . SVG Version: 6.00 Build 0)  -->
<!DOCTYPE svg PUBLIC "-//W3C//DTD SVG 1.1//EN" "http://www.w3.org/Graphics/SVG/1.1/DTD/svg11.dtd">
<svg version="1.1" id="Слой_1" xmlns="http://www.w3.org/2000/svg" xmlns:xlink="http://www.w3.org/1999/xlink" x="0px" y="0px"
	 viewBox="0 0 32 32" enable-background="new 0 0 32 32" xml:space="preserve">
<path fill="#0C0E0F" d="M6.7,4H5.2C4.4,4,3.7,4.7,3.7,5.5V7v9v9v1.5c0,0.8,0.7,1.5,1.5,1.5h1.5h18h1.5c0.8,0,1.5-0.7,1.5-1.5V25v-9
	V7V5.5C27.7,4.7,27,4,26.2,4h-1.5H6.7z M15.7,13c1.7,0,3,1.3,3,3c0,1.7-1.3,3-3,3c-1.7,0-3-1.3-3-3C12.7,14.3,14,13,15.7,13z
	 M24.7,25h-18v-9h3c0,3.3,2.7,6,6,6c3.3,0,6-2.7,6-6h3V25z M24.7,11.5h-4.5V7h4.5V11.5z"/>
</svg>
