<?xml version="1.0" encoding="utf-8"?>
<!-- Generator: Adobe Illustrator 18.0.0, SVG Export Plug-In . SVG Version: 6.00 Build 0)  -->
<!DOCTYPE svg PUBLIC "-//W3C//DTD SVG 1.1//EN" "http://www.w3.org/Graphics/SVG/1.1/DTD/svg11.dtd">
<svg version="1.1" id="Слой_1" xmlns="http://www.w3.org/2000/svg" xmlns:xlink="http://www.w3.org/1999/xlink" x="0px" y="0px"
	 viewBox="0 0 32 32" enable-background="new 0 0 32 32" xml:space="preserve">
<path fill-rule="evenodd" clip-rule="evenodd" fill="#131314" d="M5,27h4.4V10.9H5V27z"/>
<path fill-rule="evenodd" clip-rule="evenodd" fill="#131314" d="M21.1,10.9c-2.7,0-3.8,1.5-4.5,2.9l0.1-2.9h-4.4
	c0.1,1.5,0,16.1,0,16.1h4.4v-8.6c0-0.5,0-0.9,0.2-1.2c0.4-0.9,1.5-1.9,2.9-1.9c1.8,0,2.8,1.4,2.8,3.5V27H27v-8.8
	C27,13.5,24.4,10.9,21.1,10.9z"/>
<path fill-rule="evenodd" clip-rule="evenodd" fill="#131314" d="M9.4,7.2c0,1.2-1,2.2-2.2,2.2C6,9.4,5,8.4,5,7.2S6,5,7.2,5
	C8.4,5,9.4,6,9.4,7.2z"/>
</svg>
