<?xml version="1.0" encoding="utf-8"?>
<!-- Generator: Adobe Illustrator 18.0.0, SVG Export Plug-In . SVG Version: 6.00 Build 0)  -->
<!DOCTYPE svg PUBLIC "-//W3C//DTD SVG 1.1//EN" "http://www.w3.org/Graphics/SVG/1.1/DTD/svg11.dtd">
<svg version="1.1" id="Слой_1" xmlns="http://www.w3.org/2000/svg" xmlns:xlink="http://www.w3.org/1999/xlink" x="0px" y="0px"
	 viewBox="0 0 32 32" enable-background="new 0 0 32 32" xml:space="preserve">
<path fill="#0C0E0F" d="M17.9,23.6c-1.7-0.1-2.4-0.9-3.8-1.7c-0.7,3.7-1.6,7.3-4.3,9.1C9,25.4,11,21.2,12,16.7
	c-1.6-2.6,0.2-7.8,3.6-6.6c4.2,1.6-3.6,9.7,1.6,10.7c5.5,1.1,7.7-9.1,4.3-12.4C16.6,3.6,7.2,8.3,8.4,15.1c0.3,1.7,2.1,2.2,0.7,4.5
	c-3.1-0.7-4.1-3-4-6.2c0.2-5.2,4.9-8.8,9.6-9.3c5.9-0.6,11.5,2.1,12.3,7.4C27.8,17.5,24.3,24,17.9,23.6z"/>
</svg>
