<?xml version="1.0" encoding="utf-8"?>
<!-- Generator: Adobe Illustrator 18.0.0, SVG Export Plug-In . SVG Version: 6.00 Build 0)  -->
<!DOCTYPE svg PUBLIC "-//W3C//DTD SVG 1.1//EN" "http://www.w3.org/Graphics/SVG/1.1/DTD/svg11.dtd">
<svg version="1.1" id="Слой_1" xmlns="http://www.w3.org/2000/svg" xmlns:xlink="http://www.w3.org/1999/xlink" x="0px" y="0px"
	 viewBox="0 0 32 32" enable-background="new 0 0 32 32" xml:space="preserve">
<path fill="#0C0E0F" d="M24,26.7c-1,0.5-2,0.8-2.8,1c-0.8,0.2-1.8,0.3-2.7,0.3c-1.1,0-2.1-0.1-3-0.4c-0.9-0.3-1.6-0.7-2.2-1.2
	c-0.6-0.5-0.7-0.9-0.9-1.5C12.1,24.4,12,23.1,12,22v-7.5H9V10c4.5,0,4.5-4.5,4.5-6H18v6.1l4.5-0.1v4.5H18v6c0,1.4-0.2,2.4,0.5,3.1
	c0.4,0.5,1.2,0.5,1.8,0.5c1.2,0,2.5-0.4,3.7-1.2V26.7z"/>
</svg>
