<?xml version="1.0" encoding="utf-8"?>
<!-- Generator: Adobe Illustrator 18.0.0, SVG Export Plug-In . SVG Version: 6.00 Build 0)  -->
<!DOCTYPE svg PUBLIC "-//W3C//DTD SVG 1.1//EN" "http://www.w3.org/Graphics/SVG/1.1/DTD/svg11.dtd">
<svg version="1.1" id="Слой_1" xmlns="http://www.w3.org/2000/svg" xmlns:xlink="http://www.w3.org/1999/xlink" x="0px" y="0px"
	 viewBox="0 0 32 32" enable-background="new 0 0 32 32" xml:space="preserve">
<path fill="#0C0E0F" d="M27.8,9C26.9,9.4,26,9.7,25,9.8c1-0.6,1.7-1.5,2.1-2.6c-0.9,0.5-1.9,0.9-3,1.1c-0.9-0.9-2.1-1.5-3.5-1.5
	c-2.6,0-4.8,2.1-4.8,4.7c0,0.4,0,0.7,0.1,1.1c-4-0.2-7.5-2.1-9.9-4.9c-0.4,0.7-0.6,1.5-0.6,2.4c0,1.6,1.1,3.1,2.4,3.9
	C7.1,14,6,13.8,6,13.4c0,0,0,0,0,0.1c0,2.3,1.4,4.2,3.6,4.6c-0.4,0.1-1,0.2-1.4,0.2c-0.3,0-0.7,0-1-0.1c0.6,1.9,2.3,3.2,4.4,3.3
	c-1.6,1.3-3.7,2-6,2c-0.4,0-0.8,0-1.1-0.1c2.1,1.3,4.6,2.1,7.3,2.1c8.8,0,13.6-7.2,13.6-13.4c0-0.2,0-0.4,0-0.6
	C26.3,10.8,27.2,10,27.8,9z"/>
</svg>
