<?xml version="1.0" encoding="utf-8"?>
<!-- Generator: Adobe Illustrator 18.0.0, SVG Export Plug-In . SVG Version: 6.00 Build 0)  -->
<!DOCTYPE svg PUBLIC "-//W3C//DTD SVG 1.1//EN" "http://www.w3.org/Graphics/SVG/1.1/DTD/svg11.dtd">
<svg version="1.1" id="Слой_1" xmlns="http://www.w3.org/2000/svg" xmlns:xlink="http://www.w3.org/1999/xlink" x="0px" y="0px"
	 viewBox="0 0 32 32" enable-background="new 0 0 32 32" xml:space="preserve">
<path fill="#0C0E0F" d="M28.9,11c-1.4,7.6-9.2,14-11.5,15.5c-2.3,1.5-4.5-0.6-5.3-2.1C11.2,22.6,8.5,13,7.8,12.2C7.1,11.4,5,13,5,13
	l-1-1.3c0,0,4.3-4.9,7.5-5.5c3.4-0.6,3.4,5.1,4.3,8.2c0.8,3.1,1.3,4.8,2,4.8c0.7,0,2-1.7,3.5-4.3c1.5-2.6-0.1-5-2.9-3.3
	C19.5,5.1,30.3,3.5,28.9,11z"/>
</svg>
