<?xml version="1.0" encoding="utf-8"?>
<!-- Generator: Adobe Illustrator 18.0.0, SVG Export Plug-In . SVG Version: 6.00 Build 0)  -->
<!DOCTYPE svg PUBLIC "-//W3C//DTD SVG 1.1//EN" "http://www.w3.org/Graphics/SVG/1.1/DTD/svg11.dtd">
<svg version="1.1" id="Слой_1" xmlns="http://www.w3.org/2000/svg" xmlns:xlink="http://www.w3.org/1999/xlink" x="0px" y="0px"
	 viewBox="0 0 32 32" enable-background="new 0 0 32 32" xml:space="preserve">
<path fill="#0C0E0F" d="M28,16.9c-3.8,0-5.4-0.5-7.2-3.6c-1.1-1.8-0.8-3.5-0.2-4.4C20.8,8.5,21.3,8,22.1,8c1.2,0,2.5,0.2,2.5,3
	c0,0.1,0,1.4-0.2,2.9h3.2c0.2-1.5,0.2-2.8,0.2-3c0-3.8-2.1-5.9-5.7-5.9c-1.8,0-3.3,0.9-4.3,2.4c-1.3,2.1-1.2,4.9,0.2,7.3
	c1.4,2.4,2.9,3.7,4.8,4.4c-1.1,2.3-2.9,4.6-5.8,6.4C9.1,20.5,9.1,8.1,9.1,8L6,7.9C6,8.5,6,23,16.2,28.6L17,29l0.8-0.4
	c4.3-2.4,6.8-5.7,8.2-8.8c0.6,0.1,1.3,0.1,2,0.1V16.9z"/>
</svg>
